<svg xmlns="http://www.w3.org/2000/svg" viewBox="0 0 800 800" role="img" aria-labelledby="title desc">
  <title id="title">Produto 27</title>
  <desc id="desc">Imagem ilustrativa para produto de cosméticos Renomake.</desc>
  <defs>
    <linearGradient id="bg" x1="0%" y1="0%" x2="100%" y2="100%">
      <stop offset="0%" stop-color="#dfe7ff" />
      <stop offset="100%" stop-color="#7f93d5" />
    </linearGradient>
    <linearGradient id="pack" x1="0%" y1="0%" x2="0%" y2="100%">
      <stop offset="0%" stop-color="#ffffff" stop-opacity="1"/>
      <stop offset="100%" stop-color="#f5f0ea" stop-opacity="0.9"/>
    </linearGradient>
  </defs>
  <rect width="800" height="800" fill="#f8f5f1"/>
  <circle cx="640" cy="190" r="150" fill="#dfe7ff" opacity="0.42"/>
  <circle cx="180" cy="620" r="180" fill="#7f93d5" opacity="0.22"/>
  <g transform="translate(215 140)">
    <rect x="53" y="60" width="300" height="430" rx="52" fill="url(#pack)" stroke="#4f5ea8" stroke-width="9"/>
    <rect x="110" y="24" width="190" height="72" rx="22" fill="#4f5ea8" opacity="0.9"/>
    <rect x="135" y="180" width="145" height="180" rx="22" fill="url(#bg)"/>
    <path d="M145 280 C170 235, 225 235, 248 280 L250 330 C225 350, 175 350, 145 330 Z" fill="#4f5ea8" opacity="0.9"/>
    <rect x="210" y="138" width="27" height="250" rx="13" fill="#4f5ea8" opacity="0.5"/>
    <rect x="85" y="404" width="235" height="44" rx="22" fill="#4f5ea8" opacity="0.72"/>
  </g>
  <text x="400" y="680" text-anchor="middle" font-family="Arial, Helvetica, sans-serif" font-size="42" font-weight="700" fill="#1a1a1a" letter-spacing="4">RENOMAKE</text>
  <text x="400" y="728" text-anchor="middle" font-family="Arial, Helvetica, sans-serif" font-size="30" fill="#4f5ea8" letter-spacing="7">PRODUTO 27</text>
</svg>
